<svg width="390" height="844" viewBox="0 0 390 844" fill="none" xmlns="http://www.w3.org/2000/svg">
<ellipse cx="407" cy="427" rx="212" ry="207" fill="#FEC702"/>
<ellipse cx="-17" cy="215" rx="212" ry="207" fill="#02E60B"/>
<ellipse cx="17" cy="881" rx="232" ry="230" fill="#FE0202"/>
<rect width="390" height="844" fill="black" fill-opacity="0.5"/>
<path d="M85 -40H305V20C305 31.0457 296.046 40 285 40H105C93.9543 40 85 31.0457 85 20V-40Z" fill="black"/>
<path d="M150.338 10.9043C150.051 10.9043 149.791 10.8652 149.557 10.7871C149.329 10.7025 149.133 10.5918 148.971 10.4551C148.808 10.3118 148.681 10.1491 148.59 9.9668C148.505 9.77799 148.463 9.57943 148.463 9.37109C148.463 9.15625 148.505 8.95768 148.59 8.77539C148.681 8.58659 148.808 8.42383 148.971 8.28711C149.133 8.15039 149.329 8.04297 149.557 7.96484C149.791 7.88021 150.051 7.83789 150.338 7.83789C150.631 7.83789 150.891 7.88021 151.119 7.96484C151.353 8.04297 151.552 8.15039 151.715 8.28711C151.878 8.42383 152.001 8.58659 152.086 8.77539C152.177 8.95768 152.223 9.15625 152.223 9.37109C152.223 9.57943 152.177 9.77799 152.086 9.9668C152.001 10.1491 151.878 10.3118 151.715 10.4551C151.552 10.5918 151.353 10.7025 151.119 10.7871C150.891 10.8652 150.631 10.9043 150.338 10.9043ZM148.893 12.4766H151.783V24H148.893V12.4766ZM155.865 8.73633H158.961L164.508 14.3027L170.055 8.73633H173.15V24H170.055V13.0234L164.508 18.3652L158.961 13.0234V24H155.865V8.73633ZM176.441 18.2383C176.441 17.4115 176.607 16.6367 176.939 15.9141C177.278 15.1914 177.756 14.5599 178.375 14.0195C179 13.4792 179.752 13.0527 180.631 12.7402C181.516 12.4277 182.509 12.2715 183.609 12.2715C184.71 12.2715 185.699 12.4277 186.578 12.7402C187.464 13.0527 188.215 13.4792 188.834 14.0195C189.459 14.5599 189.937 15.1914 190.269 15.9141C190.608 16.6367 190.777 17.4115 190.777 18.2383C190.777 19.0651 190.608 19.8398 190.269 20.5625C189.937 21.2852 189.459 21.9167 188.834 22.457C188.215 22.9974 187.464 23.4238 186.578 23.7363C185.699 24.0488 184.71 24.2051 183.609 24.2051C182.509 24.2051 181.516 24.0488 180.631 23.7363C179.752 23.4238 179 22.9974 178.375 22.457C177.756 21.9167 177.278 21.2852 176.939 20.5625C176.607 19.8398 176.441 19.0651 176.441 18.2383ZM179.478 18.2383C179.478 18.7005 179.57 19.14 179.752 19.5566C179.941 19.9668 180.211 20.3314 180.562 20.6504C180.921 20.9629 181.353 21.2135 181.861 21.4023C182.376 21.5846 182.958 21.6758 183.609 21.6758C184.26 21.6758 184.84 21.5846 185.348 21.4023C185.862 21.2135 186.295 20.9629 186.646 20.6504C187.005 20.3314 187.275 19.9668 187.457 19.5566C187.646 19.14 187.74 18.7005 187.74 18.2383C187.74 17.776 187.646 17.3366 187.457 16.9199C187.275 16.5033 187.005 16.1387 186.646 15.8262C186.295 15.5072 185.862 15.2565 185.348 15.0742C184.84 14.8854 184.26 14.791 183.609 14.791C182.958 14.791 182.376 14.8854 181.861 15.0742C181.353 15.2565 180.921 15.5072 180.562 15.8262C180.211 16.1387 179.941 16.5033 179.752 16.9199C179.57 17.3366 179.478 17.776 179.478 18.2383ZM193.697 12.4766H196.588V13.4531C197.356 13.0169 198.089 12.7109 198.785 12.5352C199.488 12.3594 200.175 12.2715 200.846 12.2715C201.725 12.2715 202.538 12.4017 203.287 12.6621C204.036 12.916 204.684 13.2969 205.23 13.8047C205.777 14.3125 206.204 14.9473 206.51 15.709C206.822 16.4642 206.978 17.3398 206.978 18.3359V24H204.098V18.8047C204.098 18.1732 204.006 17.61 203.824 17.1152C203.648 16.6139 203.391 16.194 203.053 15.8555C202.721 15.5104 202.314 15.25 201.832 15.0742C201.357 14.8919 200.823 14.8008 200.23 14.8008C199.918 14.8008 199.596 14.8333 199.264 14.8984C198.938 14.9635 198.616 15.0579 198.297 15.1816C197.984 15.2988 197.682 15.4486 197.389 15.6309C197.096 15.8066 196.829 16.0085 196.588 16.2363V24H193.697V12.4766ZM209.986 18.1992C209.986 17.418 210.146 16.6725 210.465 15.9629C210.784 15.2467 211.243 14.6152 211.842 14.0684C212.441 13.5215 213.173 13.0853 214.039 12.7598C214.911 12.4342 215.901 12.2715 217.008 12.2715C218.108 12.2715 219.098 12.4375 219.977 12.7695C220.862 13.0951 221.611 13.5443 222.223 14.1172C222.841 14.6901 223.313 15.3639 223.639 16.1387C223.971 16.9134 224.137 17.7435 224.137 18.6289C224.137 18.7396 224.133 18.86 224.127 18.9902C224.127 19.1139 224.12 19.2279 224.107 19.332H213.209C213.333 19.6771 213.531 19.9928 213.805 20.2793C214.085 20.5658 214.433 20.8132 214.85 21.0215C215.266 21.2298 215.748 21.3926 216.295 21.5098C216.842 21.6204 217.447 21.6758 218.111 21.6758C218.775 21.6758 219.436 21.6074 220.094 21.4707C220.751 21.3275 221.38 21.1484 221.978 20.9336L222.955 23.1406C222.577 23.3164 222.193 23.4727 221.803 23.6094C221.419 23.7396 221.015 23.8503 220.592 23.9414C220.175 24.026 219.736 24.0911 219.273 24.1367C218.818 24.1823 218.336 24.2051 217.828 24.2051C216.533 24.2051 215.396 24.0488 214.42 23.7363C213.443 23.4238 212.626 22.9974 211.969 22.457C211.311 21.9167 210.816 21.2819 210.484 20.5527C210.152 19.8236 209.986 19.0391 209.986 18.1992ZM221.07 17.0762C220.966 16.7572 220.803 16.4609 220.582 16.1875C220.367 15.9076 220.097 15.6667 219.771 15.4648C219.446 15.2565 219.068 15.0938 218.639 14.9766C218.209 14.8594 217.737 14.8008 217.223 14.8008C216.676 14.8008 216.178 14.8626 215.728 14.9863C215.279 15.11 214.885 15.276 214.547 15.4844C214.208 15.6927 213.925 15.9336 213.697 16.207C213.476 16.4805 213.313 16.7702 213.209 17.0762H221.07ZM228.629 25.4453C228.928 25.6406 229.254 25.8132 229.605 25.9629C229.957 26.1126 230.322 26.2363 230.699 26.334C231.083 26.4316 231.474 26.5033 231.871 26.5488C232.268 26.6009 232.662 26.627 233.053 26.627C234.381 26.627 235.403 26.3405 236.119 25.7676C236.842 25.2012 237.203 24.3483 237.203 23.209V22.8184C236.949 22.9941 236.663 23.1569 236.344 23.3066C236.031 23.4499 235.693 23.5736 235.328 23.6777C234.97 23.7819 234.589 23.8633 234.186 23.9219C233.788 23.974 233.385 24 232.975 24C232.096 24 231.308 23.873 230.611 23.6191C229.921 23.3587 229.335 22.9811 228.853 22.4863C228.378 21.985 228.014 21.3698 227.76 20.6406C227.506 19.9115 227.379 19.0781 227.379 18.1406V12.4766H230.26V17.3398C230.26 18.7331 230.523 19.7617 231.051 20.4258C231.585 21.0833 232.424 21.4121 233.57 21.4121C234.378 21.4121 235.09 21.2721 235.709 20.9922C236.334 20.7057 236.832 20.3411 237.203 19.8984V12.4766H240.094V22.6816C240.094 23.7819 239.937 24.7357 239.625 25.543C239.312 26.3568 238.857 27.0306 238.258 27.5645C237.665 28.0983 236.936 28.4954 236.07 28.7559C235.204 29.0228 234.221 29.1562 233.121 29.1562C232.047 29.1562 231.044 29.0423 230.113 28.8145C229.182 28.5866 228.329 28.2773 227.555 27.8867L228.629 25.4453Z" fill="white"/>
</svg>
